<svg width="24" height="24" viewBox="0 0 24 24" fill="none" xmlns="http://www.w3.org/2000/svg">
  <path
    d="M12.0008 0.000768932C5.37109 0.000768932 0 5.51177 0 12.3038C0 17.7426 3.43822 22.3524 8.20326 23.9787C8.80555 24.0948 9.02306 23.7142 9.02306 23.385C9.02306 23.0929 9.01631 22.3201 9.01181 21.2943C5.67185 22.0356 4.96831 19.6403 4.96831 19.6403C4.42153 18.2224 3.63248 17.8417 3.63248 17.8417C2.54641 17.0813 3.71873 17.0974 3.71873 17.0974C4.92181 17.1812 5.55485 18.3623 5.55485 18.3623C6.62516 20.2447 8.36302 19.7003 9.05082 19.3835C9.15582 18.5907 9.46859 18.0455 9.80911 17.7418C7.14495 17.4334 4.34352 16.3761 4.34352 11.6618C4.34352 10.3154 4.80855 9.21884 5.57735 8.35762C5.44459 8.04928 5.03807 6.79591 5.68311 5.10116C5.68311 5.10116 6.68742 4.77282 8.98331 6.36299C9.9613 6.0903 10.97 5.95043 11.9835 5.94699C13.0036 5.95391 14.0229 6.09079 14.9837 6.36299C17.2661 4.77282 18.2696 5.10116 18.2696 5.10116C18.9139 6.79591 18.5074 8.04851 18.3904 8.35762C19.1517 9.21884 19.6167 10.3161 19.6167 11.6618C19.6167 16.3869 16.8116 17.4288 14.1444 17.7295C14.5614 18.0978 14.9522 18.8552 14.9522 20.0048C14.9522 21.6503 14.9372 22.976 14.9372 23.3766C14.9372 23.6965 15.1472 24.0809 15.7652 23.9571C20.5655 22.3477 24 17.7341 24 12.3031C24 5.511 18.6289 0 11.9993 0L12.0008 0.000768932Z"
    fill="#ae6fb1"></path>
</svg>