<svg width="24" height="24" viewBox="0 0 24 24" fill="none" xmlns="http://www.w3.org/2000/svg">
    <path
        d="M5.33605 7.93377C4.99912 7.93384 4.66548 7.86747 4.35423 7.73845C4.04286 7.60938 3.76002 7.42016 3.52189 7.18161C3.28377 6.94306 3.09505 6.65988 2.96654 6.34828C2.83808 6.03679 2.77231 5.70302 2.773 5.36608M5.33605 7.93377C5.84321 7.9341 6.33909 7.78408 6.761 7.50264C7.18295 7.22118 7.51197 6.82093 7.70646 6.35249C7.90095 5.88404 7.95217 5.36845 7.85365 4.8709C7.75512 4.37335 7.51127 3.91619 7.15294 3.55722C6.79461 3.19824 6.33788 2.95358 5.8405 2.85415C5.34313 2.75473 4.82744 2.80501 4.35863 2.99864C3.88983 3.19227 3.48897 3.52055 3.20673 3.94199C2.92453 4.36336 2.77359 4.85894 2.773 5.36608M5.33605 7.93377C5.33599 7.93377 5.33594 7.93377 5.33589 7.93377L5.33625 7.43377L5.33643 7.93377C5.3363 7.93377 5.33618 7.93377 5.33605 7.93377ZM2.773 5.36608C2.773 5.36615 2.773 5.36622 2.773 5.36629L3.273 5.36683L2.773 5.36574C2.773 5.36586 2.773 5.36597 2.773 5.36608ZM20.445 20.9526H20.4945L20.543 20.9429L20.5468 20.9422L20.9487 20.8618V20.4519V14.1633C20.9487 12.6109 20.786 11.1211 20.0874 10.014C19.3555 8.85425 18.1034 8.21023 16.1798 8.21023C14.9488 8.21023 13.9629 8.64325 13.2657 9.23214V8.99897V8.49897H12.7657H9.35175H8.85175V8.99897V20.4519V20.9519H9.35175H12.906H13.406V20.4519V14.7843C13.406 14.045 13.4804 13.4236 13.7162 12.9963C13.8275 12.7945 13.9725 12.6408 14.1667 12.5335C14.3637 12.4246 14.641 12.3474 15.039 12.3474C15.4165 12.3474 15.6556 12.4344 15.8148 12.5452C15.975 12.6567 16.097 12.8221 16.1881 13.0515C16.3819 13.5392 16.3953 14.1967 16.3953 14.8825V20.4526V20.9526H16.8953H20.445ZM7.11675 20.9526H7.61675V20.4526V8.99972V8.49972H7.11675H3.555H3.055V8.99972V20.4526V20.9526H3.555H7.11675ZM1.77 0.5H22.2233C22.9367 0.5 23.5 1.06306 23.5 1.7302V22.2698C23.5 22.9369 22.9367 23.5 22.2233 23.5H1.77C1.05779 23.5 0.5 22.9397 0.5 22.2698V1.7302C0.5 1.06034 1.05779 0.5 1.77 0.5Z"
        fill="#ae6fb1" stroke="#ae6fb1"></path>
</svg>